<?xml version="1.0" encoding="UTF-8"?>
<!DOCTYPE svg PUBLIC "-//W3C//DTD SVG 1.1//EN" "http://www.w3.org/Graphics/SVG/1.1/DTD/svg11.dtd">
<!-- Creator: CorelDRAW 2019 (64-Bit) -->
<svg xmlns="http://www.w3.org/2000/svg" xml:space="preserve" width="150mm" height="40mm" version="1.1" style="shape-rendering:geometricPrecision; text-rendering:geometricPrecision; image-rendering:optimizeQuality; fill-rule:evenodd; clip-rule:evenodd"
viewBox="0 0 15000 4000"
 xmlns:xlink="http://www.w3.org/1999/xlink">
 <defs>
  <style type="text/css">
   <![CDATA[
    .fil0 {fill:#FCC300}
    .fil1 {fill:#E53A24}
    .fil2 {fill:#2B2A29;fill-rule:nonzero}
    .fil4 {fill:#2B2A29;fill-rule:nonzero}
    .fil3 {fill:#E53A24;fill-rule:nonzero}
   ]]>
  </style>
 </defs>
 <g id="Layer_x0020_1">
  <metadata id="CorelCorpID_0Corel-Layer"/>
  <g id="_1707271375968">
   <g>
    <path class="fil0" d="M1967.99 1410.71c-422.77,501.94 -759.15,1014.86 -1062.79,1620.86 259.83,-1004.47 834.11,-1979.65 1312.56,-2512.53 -28.99,748.97 79.52,1306.35 503.5,1838.7 -373.99,-182.83 -664.05,-630.18 -753.27,-947.03z"/>
    <path class="fil1" d="M3185.07 1643.8c-150.82,218.74 -571.2,424.83 -1087.93,509.85 -678.93,111.71 -1267.38,-27.83 -1314.07,-311.6 -32.5,-197.54 206.12,-412.96 583.14,-563.34 -207.37,124.66 -325.25,271.96 -302.54,409.98 43.95,267.15 597.93,398.5 1237.08,293.34 372.24,-61.25 691.35,-189.24 884.32,-338.23z"/>
    <path class="fil1" d="M2491.65 3396.5c21.23,0 38.44,-17.21 38.44,-38.44 0,-21.22 -17.21,-38.43 -38.44,-38.43 -21.22,0 -38.43,17.21 -38.43,38.43 0,21.23 17.21,38.44 38.43,38.44z"/>
    <path class="fil2" d="M982.95 3157.66l-35.43 0 -16.38 12.41c0,-0.08 -0.88,-0.97 -2.66,-2.66 -1.7,-1.63 -4.43,-3.54 -8.05,-5.75 -3.62,-2.22 -8.2,-4.14 -13.8,-5.76 -5.55,-1.7 -12.18,-2.58 -19.78,-2.66 -13.29,0.08 -25.1,2.6 -35.58,7.53 -10.47,4.88 -19.63,11.58 -27.54,20.15 -7.89,8.55 -14.6,18.36 -20.13,29.38 -5.54,11.07 -10.05,22.72 -13.51,35.13 -3.47,12.32 -6,24.8 -7.6,37.33 -1.56,12.57 -2.37,24.61 -2.37,36.1 0.06,15.95 1.93,29.09 5.39,39.27 3.46,10.19 8.12,18.16 13.8,23.77 5.76,5.69 11.96,9.59 18.75,11.74 6.71,2.21 13.44,3.25 20.07,3.17 7.69,-0.06 14.62,-1.24 20.75,-3.55 6.12,-2.27 11.43,-5.08 16.01,-8.48 4.59,-3.33 8.34,-6.72 11.37,-10.04 3.02,-3.4 5.24,-6.2 6.79,-8.49 1.49,-2.29 2.22,-3.47 2.22,-3.54l4.42 29.67 42.07 0 41.19 -234.72zm-66.44 49.16l-16.82 98.33c0,0.06 -0.59,1.24 -1.84,3.46 -1.18,2.3 -2.81,5.16 -4.95,8.7 -2.21,3.54 -4.72,7.31 -7.6,11.3 -2.88,3.98 -6.06,7.76 -9.52,11.3 -3.4,3.54 -7.02,6.48 -10.69,8.7 -3.78,2.2 -7.62,3.38 -11.46,3.47 -4.71,0.07 -8.56,-2.29 -11.43,-6.94 -2.96,-4.64 -4.43,-11.95 -4.5,-21.85 0,-6.71 0.36,-14.39 1.18,-23.02 0.8,-8.64 2.06,-17.57 3.76,-26.87 1.78,-9.21 4.06,-18.31 6.88,-27.09 2.78,-8.71 6.18,-16.67 10.25,-23.77 3.98,-7 8.7,-12.67 14.08,-16.82 5.32,-4.22 11.45,-6.35 18.33,-6.44 4.63,0.09 8.76,0.75 12.39,1.93 3.69,1.26 6.56,2.44 8.7,3.62 2.15,1.26 3.18,1.93 3.24,1.99zm285.65 -49.16l-63.33 0 -46.04 124.01c-2.15,5.76 -4.46,12.11 -6.73,19.05 -2.36,6.92 -4.66,13.86 -6.94,20.8 -2.21,6.94 -4.2,13.29 -6.06,19.13 -1.83,5.74 -3.24,10.47 -4.34,13.94 -1.04,3.54 -1.63,5.39 -1.63,5.46 0,-0.07 0,-1.84 0.07,-5.32 0,-3.46 0,-8.1 0.08,-13.86 0,-5.76 0,-12.03 0.07,-18.97 0,-6.95 0,-13.89 -0.07,-20.83 0,-7 -0.08,-13.5 -0.15,-19.4l-1.33 -124.01 -62.89 0 26.14 234.72 67.31 0 105.84 -234.72zm191.33 0l-35.46 0 -16.38 12.41c0,-0.08 -0.88,-0.97 -2.65,-2.66 -1.7,-1.63 -4.43,-3.54 -8.04,-5.75 -3.62,-2.22 -8.19,-4.14 -13.8,-5.76 -5.54,-1.7 -12.19,-2.58 -19.79,-2.66 -13.29,0.08 -25.1,2.6 -35.57,7.53 -10.48,4.88 -19.64,11.58 -27.53,20.15 -7.89,8.55 -14.61,18.36 -20.16,29.38 -5.52,11.07 -10.03,22.72 -13.51,35.13 -3.46,12.32 -5.97,24.8 -7.58,37.33 -1.56,12.57 -2.36,24.61 -2.36,36.1 0.06,15.95 1.91,29.09 5.36,39.27 3.48,10.19 8.12,18.16 13.82,23.77 5.75,5.69 11.96,9.59 18.74,11.74 6.71,2.21 13.44,3.25 20.08,3.17 7.69,-0.06 14.63,-1.24 20.74,-3.55 6.12,-2.27 11.44,-5.08 16,-8.48 4.58,-3.33 8.36,-6.72 11.39,-10.04 3,-3.4 5.22,-6.2 6.78,-8.49 1.48,-2.29 2.22,-3.47 2.22,-3.54l4.43 29.67 42.05 0 41.22 -234.72zm-66.44 49.16l-16.83 98.33c0,0.06 -0.59,1.24 -1.85,3.46 -1.18,2.3 -2.82,5.16 -4.94,8.7 -2.22,3.54 -4.73,7.31 -7.6,11.3 -2.89,3.98 -6.05,7.76 -9.52,11.3 -3.41,3.54 -7.02,6.48 -10.72,8.7 -3.75,2.2 -7.58,3.38 -11.43,3.47 -4.72,0.07 -8.56,-2.29 -11.44,-6.94 -2.96,-4.64 -4.43,-11.95 -4.49,-21.85 0,-6.71 0.35,-14.39 1.18,-23.02 0.8,-8.64 2.06,-17.57 3.75,-26.87 1.77,-9.21 4.06,-18.31 6.86,-27.09 2.81,-8.71 6.21,-16.67 10.27,-23.77 3.99,-7 8.71,-12.67 14.09,-16.82 5.33,-4.22 11.45,-6.35 18.31,-6.44 4.64,0.09 8.78,0.75 12.4,1.93 3.68,1.26 6.57,2.44 8.71,3.62 2.14,1.26 3.17,1.93 3.25,1.99zm288.29 11.97c2.22,-12.57 2.3,-23.69 0.08,-33.52 -2.15,-9.82 -6.72,-17.64 -13.75,-23.32 -7,-5.68 -16.59,-8.56 -28.84,-8.71 -7.97,0.08 -15.35,1.18 -22.22,3.47 -6.86,2.22 -13.07,5.09 -18.67,8.56 -5.61,3.54 -10.56,7.23 -14.93,11.23 -4.34,3.91 -7.95,7.66 -10.9,11.21 -2.95,3.45 -5.17,6.35 -6.73,8.57 -1.54,2.2 -2.28,3.38 -2.28,3.46l-3.11 -42.08 -45.16 0 -41.19 234.72 57.57 0 24.8 -139.49c0,-0.09 0.81,-1.33 2.37,-3.69 1.61,-2.43 3.76,-5.56 6.56,-9.3 2.74,-3.77 5.99,-7.83 9.68,-12.04 3.67,-4.27 7.66,-8.26 11.88,-12.03 4.28,-3.84 8.63,-6.87 13.21,-9.3 4.5,-2.36 9,-3.61 13.43,-3.69 3.77,0 6.42,1.26 7.9,3.54 1.47,2.36 2.15,5.61 2.06,9.68 -0.07,4.13 -0.59,8.87 -1.54,14.23l-28.34 162.09 57.56 0 30.56 -173.59zm234.27 -61.13l-37.65 0 -15.49 15.07c0,-0.08 -0.89,-1.12 -2.74,-3.04 -1.77,-1.91 -4.58,-4.2 -8.34,-6.71 -3.75,-2.5 -8.56,-4.78 -14.31,-6.71 -5.84,-1.92 -12.7,-2.95 -20.66,-3.03 -13.08,0.08 -24.73,2.36 -35.07,6.78 -10.41,4.45 -19.48,10.64 -27.3,18.47 -7.9,7.74 -14.62,16.75 -20.15,26.93 -5.63,10.19 -10.12,21.04 -13.66,32.56 -3.47,11.58 -6.05,23.24 -7.67,35.13 -1.63,11.89 -2.45,23.47 -2.45,34.69 0.09,13.72 1.4,25.39 4.07,34.83 2.58,9.52 6.12,17.28 10.54,23.25 4.37,6 9.31,10.58 14.77,13.72 5.47,3.27 11.01,5.49 16.69,6.67 5.74,1.18 11.21,1.76 16.37,1.68 6.94,-0.07 13.28,-1.25 19.13,-3.54 5.83,-2.29 11,-5.08 15.57,-8.49 4.58,-3.33 8.49,-6.71 11.73,-10.04 3.17,-3.39 5.62,-6.2 7.31,-8.48 1.62,-2.3 2.51,-3.48 2.51,-3.54l-3.1 20.38c-1.79,12.53 -4.5,23.31 -8.04,32.1 -3.62,8.84 -8.78,15.57 -15.51,20.21 -6.71,4.66 -15.72,7.02 -26.94,7.02 -5.68,0 -11.58,-0.58 -17.85,-1.63 -6.34,-1.1 -12.48,-2.43 -18.54,-3.98 -6.05,-1.55 -11.5,-3.18 -16.37,-4.72 -4.94,-1.56 -8.85,-2.89 -11.81,-3.98 -2.96,-1.04 -4.43,-1.56 -4.52,-1.63l-8.4 46.94c0.07,0.06 1.55,0.6 4.58,1.69 2.94,1.11 6.93,2.45 12.03,4.06 5.08,1.63 10.77,3.24 17.2,4.88 6.34,1.63 12.98,2.95 19.84,4.05 6.94,1.12 13.66,1.62 20.3,1.71 13.66,0 25.39,-1.04 35.28,-3.09 9.89,-2.16 18.38,-5.33 25.54,-9.61 7.09,-4.2 13.22,-9.6 18.45,-16.1 5.09,-6.34 9.31,-13.73 12.61,-21.99 3.34,-8.34 6.14,-17.48 8.43,-27.6 2.29,-10.03 4.43,-20.82 6.42,-32.33l37.2 -212.58zm-66.44 51.38l-15.95 90.34c0,0.14 -0.87,1.63 -2.56,4.59 -1.71,2.94 -4,6.63 -6.94,10.98 -3.04,4.36 -6.42,8.79 -10.27,13.15 -3.9,4.35 -8.04,8.05 -12.39,10.99 -4.43,2.96 -8.86,4.43 -13.44,4.58 -3.02,0.06 -5.75,-0.38 -8.18,-1.24 -2.45,-0.98 -4.51,-2.74 -6.28,-5.47 -1.78,-2.66 -3.11,-6.57 -4.07,-11.82 -0.87,-5.16 -1.4,-11.95 -1.4,-20.44 0,-4.87 0.38,-10.86 1.11,-17.79 0.66,-7.01 1.84,-14.46 3.47,-22.37 1.62,-7.89 3.76,-15.64 6.43,-23.32 2.65,-7.66 5.9,-14.69 9.81,-21.03 3.84,-6.28 8.34,-11.3 13.58,-15.06 5.17,-3.84 11.15,-5.76 17.87,-5.85 4.94,0.09 9.66,0.98 14.09,2.53 4.43,1.55 7.98,3.1 10.78,4.72 2.81,1.55 4.28,2.36 4.34,2.51zm286.53 -51.38l-35.41 0 -16.4 12.41c0,-0.08 -0.89,-0.97 -2.66,-2.66 -1.69,-1.63 -4.43,-3.54 -8.03,-5.75 -3.63,-2.22 -8.21,-4.14 -13.81,-5.76 -5.54,-1.7 -12.18,-2.58 -19.78,-2.66 -13.29,0.08 -25.1,2.6 -35.57,7.53 -10.48,4.88 -19.64,11.58 -27.55,20.15 -7.89,8.55 -14.6,18.36 -20.15,29.38 -5.52,11.07 -10.03,22.72 -13.5,35.13 -3.46,12.32 -5.97,24.8 -7.59,37.33 -1.56,12.57 -2.37,24.61 -2.37,36.1 0.07,15.95 1.92,29.09 5.4,39.27 3.46,10.19 8.12,18.16 13.79,23.77 5.76,5.69 11.96,9.59 18.75,11.74 6.73,2.21 13.43,3.25 20.07,3.17 7.68,-0.06 14.61,-1.24 20.74,-3.55 6.13,-2.27 11.44,-5.08 16.03,-8.48 4.58,-3.33 8.34,-6.72 11.36,-10.04 3.03,-3.4 5.25,-6.2 6.79,-8.49 1.47,-2.29 2.21,-3.47 2.21,-3.54l4.43 29.67 42.08 0 41.17 -234.72zm-66.42 49.16l-16.83 98.33c0,0.06 -0.59,1.24 -1.85,3.46 -1.18,2.3 -2.79,5.16 -4.94,8.7 -2.21,3.54 -4.72,7.31 -7.61,11.3 -2.87,3.98 -6.04,7.76 -9.51,11.3 -3.4,3.54 -7.01,6.48 -10.69,8.7 -3.78,2.2 -7.62,3.38 -11.46,3.47 -4.71,0.07 -8.55,-2.29 -11.43,-6.94 -2.96,-4.64 -4.44,-11.95 -4.51,-21.85 0,-6.71 0.37,-14.39 1.19,-23.02 0.8,-8.64 2.06,-17.57 3.75,-26.87 1.77,-9.21 4.07,-18.31 6.86,-27.09 2.81,-8.71 6.21,-16.67 10.27,-23.77 3.99,-7 8.71,-12.67 14.09,-16.82 5.32,-4.22 11.44,-6.35 18.31,-6.44 4.65,0.09 8.79,0.75 12.41,1.93 3.7,1.26 6.56,2.44 8.71,3.62 2.13,1.26 3.17,1.93 3.24,1.99zm240.46 -46.94c0,-0.07 -1.03,-0.64 -2.94,-1.68 -1.92,-1.12 -4.72,-2.15 -8.26,-3.27 -3.54,-1.02 -7.83,-1.61 -12.71,-1.69 -6.78,0.08 -12.84,1.18 -18.08,3.47 -5.31,2.22 -9.97,5.09 -13.95,8.56 -3.91,3.54 -7.31,7.23 -10.05,11.23 -2.72,3.91 -4.93,7.66 -6.63,11.21 -1.7,3.45 -2.95,6.35 -3.77,8.57 -0.73,2.2 -1.1,3.38 -1.1,3.46l-1.33 -42.08 -42.08 0 -41.19 234.72 57.59 0 24.79 -139.93c0,-0.08 0.6,-1.26 1.64,-3.48 1.09,-2.2 2.57,-5.09 4.58,-8.56 1.98,-3.55 4.42,-7.31 7.14,-11.22 2.8,-3.99 5.91,-7.66 9.37,-11.2 3.4,-3.49 7.09,-6.36 11.01,-8.58 3.89,-2.28 8.04,-3.4 12.32,-3.46 3.91,0.06 7.68,0.58 11.29,1.61 3.62,0.97 6.64,2 9.01,2.95 2.28,1.04 3.54,1.56 3.62,1.63l9.73 -52.26zm212.13 -86.34l-57.57 0 -15.95 89.44c-0.06,-0.14 -1.68,-0.95 -4.93,-2.5 -3.25,-1.55 -7.75,-3.2 -13.44,-4.73 -5.7,-1.55 -12.24,-2.36 -19.71,-2.51 -13.43,0.08 -25.45,2.51 -36.16,7.24 -10.7,4.72 -20.07,11.2 -28.27,19.48 -8.11,8.27 -15.12,17.71 -20.88,28.49 -5.83,10.72 -10.64,22.15 -14.26,34.25 -3.67,12.19 -6.4,24.43 -8.12,36.9 -1.76,12.4 -2.57,24.5 -2.57,36.16 0.15,17.28 2.07,31.3 5.76,41.99 3.75,10.73 8.55,18.91 14.54,24.6 5.9,5.68 12.24,9.52 18.96,11.59 6.71,2.06 13.05,3.02 19.19,2.87 8.25,-0.06 15.57,-1.33 22.07,-3.76 6.5,-2.44 12.11,-5.46 16.9,-9 4.8,-3.63 8.78,-7.17 11.88,-10.78 3.18,-3.55 5.54,-6.57 7.09,-9.01 1.56,-2.43 2.29,-3.69 2.29,-3.77l4.88 31.89 42.07 0 56.23 -318.84zm-80.6 131.5l-17.7 100.11c0,0.06 -0.6,1.24 -1.78,3.46 -1.18,2.3 -2.87,5.16 -5.01,8.7 -2.15,3.54 -4.73,7.31 -7.69,11.3 -2.95,3.98 -6.19,7.76 -9.74,11.3 -3.54,3.54 -7.3,6.48 -11.29,8.7 -3.98,2.2 -8.13,3.38 -12.32,3.47 -4.15,0.15 -7.54,-0.81 -10.21,-2.88 -2.71,-1.99 -4.71,-5.75 -6.02,-11.22 -1.27,-5.46 -1.93,-13.28 -1.93,-23.53 0,-5.55 0.37,-12.26 1.02,-20.03 0.75,-7.74 2,-15.92 3.62,-24.63 1.71,-8.71 3.99,-17.28 6.8,-25.69 2.87,-8.34 6.42,-16.03 10.64,-22.88 4.18,-6.87 9.21,-12.4 14.97,-16.53 5.82,-4.07 12.47,-6.21 20.08,-6.28 5.23,0.07 9.81,0.67 13.8,1.7 3.98,1.1 7.08,2.14 9.3,3.25 2.28,1.02 3.39,1.62 3.46,1.68zm400.53 23.03c-0.08,-15.49 -1.7,-28.19 -4.79,-38 -3.09,-9.9 -7.09,-17.48 -12.12,-22.8 -5.01,-5.39 -10.46,-9.07 -16.31,-11.16 -5.89,-1.99 -11.65,-2.94 -17.26,-2.87 -7.9,0.08 -14.97,1.26 -21.27,3.54 -6.27,2.3 -11.8,5.1 -16.45,8.49 -4.72,3.33 -8.63,6.72 -11.8,10.05 -3.11,3.38 -5.47,6.19 -7.02,8.48 -1.55,2.27 -2.36,3.47 -2.36,3.54l19.92 -113.8 -57.57 0 -53.58 305.11c0.15,0.08 2.36,1.03 6.78,2.8 4.52,1.86 10.41,3.91 17.87,6.27 7.45,2.38 15.72,4.45 24.88,6.27 9.15,1.78 18.45,2.76 27.97,2.82 16.3,0 30.4,-1.78 42.36,-5.38 11.9,-3.63 22.21,-9.24 30.93,-16.84 8.64,-7.67 16.24,-17.5 22.8,-29.59 3.56,-6.49 7.02,-14.1 10.19,-22.97 3.25,-8.76 6.13,-18.36 8.64,-28.7 2.51,-10.33 4.49,-21.04 5.98,-32.11 1.47,-11.07 2.21,-22.14 2.21,-33.15zm-57.57 4c0,8.57 -0.74,17.49 -2.07,26.57 -1.4,9.15 -3.19,18.01 -5.38,26.72 -2.21,8.71 -4.66,16.68 -7.31,23.97 -2.66,7.34 -5.24,13.45 -7.83,18.39 -3.46,6.34 -7.16,11.37 -11.2,15.21 -4.01,3.91 -7.99,6.64 -11.97,8.42 -3.98,1.68 -7.61,2.51 -10.92,2.51 -3.33,-0.08 -6.87,-0.45 -10.55,-1.19 -3.63,-0.68 -6.74,-1.4 -9.31,-2.06 -2.59,-0.74 -3.91,-1.12 -4.06,-1.18l18.6 -104.96c0.06,-0.14 1.04,-1.7 3.03,-4.8 1.99,-3.11 4.65,-6.86 7.97,-11.44 3.32,-4.51 7.08,-9.06 11.31,-13.58 4.2,-4.58 8.47,-8.43 12.97,-11.45 4.44,-3.09 8.79,-4.64 12.99,-4.79 5.45,0 9.08,2.73 11,8.35 1.99,5.6 2.88,14.02 2.73,25.31zm269.69 -74.41l-65.53 0 -54.48 175.82 -5.3 -175.82 -67.32 0 38.96 235.6c-5.74,9.53 -12.61,16.91 -20.44,22.22 -7.9,5.33 -16.84,9.23 -26.72,11.67 -9.88,2.51 -20.73,4.21 -32.55,5.09l-7.95 44.29c19.91,0.07 37.4,-1.26 52.39,-3.92 14.98,-2.66 28.05,-7.24 39.18,-13.65 11.23,-6.42 21.05,-15.21 29.53,-26.35 8.49,-11.15 16.24,-25.17 23.24,-42l96.99 -232.95z"/>
   </g>
   <path class="fil3" d="M4425.9 2713.44l-170.06 0 -67.33 -177.5 -312.72 0 -64.79 177.5 -166.97 0 302.73 -779.69 166.79 0 312.35 779.69zm-288.58 -309.26l-108.35 -288.57 -105.26 288.57 213.61 0zm372.6 -470.43l311.81 0c61.88,0 107.8,2.54 138.11,7.62 30.49,5.27 57.53,15.98 81.49,32.13 23.96,16.33 43.92,37.93 59.89,64.97 15.97,27.04 23.96,57.54 23.96,91.11 0,36.3 -9.8,69.88 -29.4,100.18 -19.6,30.5 -46.28,53.18 -79.86,68.43 47.37,13.97 83.67,37.57 109.26,70.96 25.41,33.39 38.11,72.6 38.11,117.79 0,35.57 -8.16,70.05 -24.68,103.63 -16.52,33.58 -39.02,60.44 -67.7,80.58 -28.49,19.97 -63.7,32.31 -105.62,37.03 -26.14,2.72 -89.48,4.53 -189.84,5.26l-265.53 0 0 -779.69zm157.9 129.59l0 179.67 103.09 0c61.16,0 99.27,-0.9 114.16,-2.72 26.86,-3.08 48.09,-12.34 63.52,-27.77 15.43,-15.42 23.05,-35.57 23.05,-60.62 0,-24.13 -6.72,-43.55 -19.97,-58.62 -13.24,-15.06 -33.03,-24.14 -59.16,-27.22 -15.61,-1.82 -60.44,-2.72 -134.31,-2.72l-90.38 0zm0 309.26l0 209.08 145.92 0c56.63,0 92.74,-1.64 107.99,-4.72 23.41,-4.36 42.47,-14.7 57.17,-31.22 14.7,-16.7 22.14,-38.66 22.14,-66.42 0,-23.6 -5.63,-43.38 -17.06,-59.72 -11.25,-16.33 -27.77,-28.31 -49.18,-35.75 -21.42,-7.44 -68.06,-11.25 -139.75,-11.25l-127.23 0zm1276.61 340.84l-170.06 0 -67.33 -177.5 -312.72 0 -64.79 177.5 -166.97 0 302.73 -779.69 166.79 0 312.35 779.69zm-288.58 -309.26l-108.35 -288.57 -105.26 288.57 213.61 0zm372.6 309.26l0 -779.69 157.9 0 0 307.09 307.09 0 0 -307.09 157.89 0 0 779.69 -157.89 0 0 -340.84 -307.09 0 0 340.84 -157.9 0zm794.03 -779.69l528.14 0 0 131.76 -370.25 0 0 647.93 -157.89 0 0 -779.69zm1243.4 779.69l-170.06 0 -67.33 -177.5 -312.72 0 -64.79 177.5 -166.97 0 302.73 -779.69 166.79 0 312.35 779.69zm-288.58 -309.26l-108.35 -288.57 -105.26 288.57 213.61 0zm372.6 309.26l0 -779.69 252.46 0c95.64,0 157.9,3.81 186.93,11.62 44.65,11.79 82.04,37.2 112.17,76.41 30.12,39.2 45.19,89.83 45.19,151.9 0,47.92 -8.71,88.03 -25.96,120.7 -17.42,32.66 -39.38,58.25 -66.06,76.95 -26.68,18.51 -53.9,30.85 -81.49,36.84 -37.57,7.44 -91.83,11.25 -162.98,11.25l-102.36 0 0 294.02 -157.9 0zm157.9 -647.93l0 222.15 85.85 0c61.89,0 103.08,-4.17 123.96,-12.34 20.87,-8.17 37.2,-20.87 49,-38.48 11.8,-17.42 17.78,-37.57 17.78,-60.8 0,-28.49 -8.34,-51.9 -24.86,-70.42 -16.7,-18.51 -37.57,-30.12 -63.16,-34.84 -18.69,-3.45 -56.26,-5.27 -112.89,-5.27l-75.68 0zm562.99 -131.76l537.94 0 0 647.93 68.61 0 0 301.64 -131.77 0 0 -169.88 -488.93 0 0 169.88 -131.77 0 0 -301.64 66.43 0c32.3,-66.61 53.72,-143.93 64.07,-231.77 10.34,-88.02 15.42,-199.28 15.42,-333.76l0 -82.4zm150.28 131.76c0,235.94 -21.78,408 -65.34,516.17l295.11 0 0 -516.17 -229.77 0zm920.89 -131.76l546.11 0 0 779.69 -157.9 0 0 -647.93 -234.12 0 0 332.86c0,95.28 -3.27,161.89 -9.62,199.46 -6.35,37.75 -21.78,67.33 -46.46,88.39 -24.68,21.05 -63.16,31.58 -115.61,31.58 -18.51,0 -51.91,-1.82 -100.55,-5.27l0 -122.14 35.21 0.54c32.85,0 55.18,-4.35 66.43,-13.25 11.43,-8.89 17.06,-30.67 17.06,-65.33l-0.55 -133.94 0 -444.66zm710.18 0l147.01 0 0 519.07 315.8 -519.07 156.8 0 0 779.69 -147 0 0 -510.72 -315.8 510.72 -156.81 0 0 -779.69zm891.67 212.35l-153.55 -35.94c33.04,-127.04 126.87,-190.56 281.5,-190.56 91.47,0 160.62,20.14 207.26,60.43 46.64,40.29 69.88,87.66 69.88,142.11 0,37.21 -10.71,70.78 -31.95,100.91 -21.23,29.95 -53.17,56.26 -95.64,79.13 51.54,17.79 90.38,42.83 116.15,75.32 25.77,32.67 38.66,72.6 38.66,120.33 0,68.6 -25.05,123.96 -75.32,166.24 -50.09,42.29 -125.23,63.53 -225.23,63.53 -81.49,0 -145.92,-13.62 -193.11,-40.84 -47.19,-27.22 -82.58,-78.22 -106.35,-153l143.74 -46.82c14.88,47 34.85,77.5 59.53,91.29 24.68,13.97 55.17,20.87 91.47,20.87 49.73,0 86.03,-10.71 108.9,-32.31 22.68,-21.59 34.12,-46.28 34.12,-74.23 0,-31.94 -12.89,-57.89 -38.66,-77.49 -25.59,-19.6 -64.43,-29.4 -116.16,-29.4l-35.75 0 0 -117.61 17.97 0c48.09,0 84.94,-10.89 110.34,-32.49 25.59,-21.6 38.3,-50.45 38.3,-86.21 0,-28.49 -10.35,-52.45 -31.04,-72.05 -20.69,-19.42 -50.27,-29.22 -88.75,-29.22 -65.88,0 -107.98,32.67 -126.31,98.01zm573.33 -212.35l147.01 0 0 519.07 315.8 -519.07 156.8 0 0 779.69 -147 0 0 -510.72 -315.8 510.72 -156.81 0 0 -779.69zm780.59 779.69l0 -779.69 157.9 0 0 307.09 307.09 0 0 -307.09 157.89 0 0 779.69 -157.89 0 0 -340.84 -307.09 0 0 340.84 -157.9 0zm794.03 -779.69l528.14 0 0 131.76 -370.25 0 0 647.93 -157.89 0 0 -779.69z"/>
   <path class="fil4" d="M3747.77 1601.64l33.07 -8.45c2.52,12.74 9.25,25.48 20.15,38.22 10.97,12.74 25.42,19.11 43.49,19.11 18.37,0 32.88,-4.72 43.54,-14.21 10.6,-9.43 15.92,-20.89 15.92,-34.3 0,-14.45 -5.57,-26.03 -16.78,-34.54 -11.14,-8.57 -26.39,-12.86 -45.62,-12.86l-16.6 0 0 -30.5c15.92,0 28.11,-0.92 36.56,-2.76 8.45,-1.83 15.93,-6.55 22.42,-14.14 6.49,-7.54 9.74,-16.17 9.74,-25.85 0,-11.39 -4.41,-21.37 -13.29,-29.82 -8.82,-8.46 -20.83,-12.68 -35.89,-12.68 -13.23,0 -24.5,3.31 -33.81,9.98 -9.31,6.68 -15.74,15.5 -19.35,26.46 -3.55,10.96 -5.33,19.17 -5.33,24.56l-33.44 -7.72c8.21,-55.85 38.95,-83.78 92.17,-83.78 25.66,0 45.93,7.16 60.94,21.43 15,14.27 22.54,30.93 22.54,50.04 0,24.5 -11.58,43.48 -34.73,56.96 13.41,3.73 24.62,11.33 33.69,22.72 9,11.45 13.53,25.11 13.53,41.03 0,22.66 -8.76,41.58 -26.27,56.83 -17.52,15.25 -40.73,22.91 -69.64,22.91 -49.73,0 -82.06,-26.21 -97.01,-78.64zm319.99 74.23l100.93 -263.1 38.27 0 107.12 263.1 -39.62 0 -30.44 -79.74 -110.79 0 -28.54 79.74 -36.93 0zm75.7 -108.03l89.66 0 -27.44 -72.94c-8.27,-22.17 -14.52,-40.49 -18.86,-54.94 -3.62,17.15 -8.46,33.99 -14.52,50.65l-28.84 77.23zm311.53 -155.07l34.91 0 0 115.38c15.86,0 27.07,-3.12 33.5,-9.31 6.49,-6.18 14.7,-21 24.74,-44.52 7.29,-17.33 13.29,-29.52 18.07,-36.63 4.71,-7.16 11.45,-13.16 20.21,-18 8.69,-4.84 18.37,-7.29 28.9,-7.29 13.42,0 20.46,0.12 21.19,0.37l0 30.13c-1.22,0 -3.55,-0.06 -6.98,-0.18 -3.86,-0.13 -6.18,-0.19 -7.04,-0.19 -11.09,0 -19.35,2.7 -24.74,8.09 -5.51,5.39 -11.76,16.9 -18.87,34.48 -8.81,22.29 -16.29,36.38 -22.41,42.19 -6.06,5.76 -13.41,10.42 -21.86,13.91 16.96,4.65 33.74,20.39 50.28,47.09l54.2 87.58 -43.24 0 -44.16 -71.29c-12.06,-19.78 -22.17,-33.37 -30.25,-40.72 -8.15,-7.41 -18.62,-11.09 -31.54,-11.09l0 123.1 -34.91 0 0 -263.1zm325.86 263.1l0 -263.1 99.34 0c17.46,0 30.81,0.86 40.05,2.51 12.93,2.14 23.77,6.25 32.52,12.25 8.76,6.06 15.81,14.51 21.13,25.35 5.33,10.84 7.97,22.79 7.97,35.83 0,22.29 -7.11,41.22 -21.38,56.65 -14.21,15.5 -39.99,23.21 -77.23,23.21l-67.49 0 0 107.3 -34.91 0zm34.91 -138.16l67.98 0c22.54,0 38.46,-4.17 47.96,-12.56 9.43,-8.39 14.14,-20.15 14.14,-35.4 0,-10.96 -2.75,-20.39 -8.33,-28.23 -5.57,-7.84 -12.92,-13.05 -21.98,-15.56 -5.88,-1.53 -16.72,-2.32 -32.46,-2.32l-67.31 0 0 94.07zm324.58 -124.94l34.91 0 0 112.07 62.65 0c41.1,0 68.1,7.6 81.09,22.85 12.92,15.19 19.41,32.46 19.41,51.75 0,20.39 -6.92,38.21 -20.82,53.52 -13.84,15.25 -39.56,22.91 -77.23,22.91l-100.01 0 0 -263.1zm34.91 233.34l63.45 0c21.8,0 37.66,-3.68 47.46,-11.03 9.86,-7.35 14.76,-19.11 14.76,-35.27 0,-10.97 -3,-20.21 -8.94,-27.62 -5.94,-7.42 -13.66,-12.13 -23.09,-14.15 -9.37,-2.02 -25.11,-3.06 -47.16,-3.06l-46.48 0 0 91.13zm194.75 -233.34l34.91 0 0 263.1 -34.91 0 0 -263.1zm273.25 263.1l0 -232.23 -86.72 0 0 -30.87 208.35 0 0 30.87 -86.72 0 0 232.23 -34.91 0zm242.94 -128.06c0,-43.61 11.76,-77.78 35.21,-102.46 23.46,-24.68 53.71,-36.99 90.83,-36.99 24.31,0 46.17,5.82 65.71,17.39 19.48,11.58 34.36,27.75 44.59,48.51 10.22,20.7 15.37,44.21 15.37,70.49 0,26.64 -5.39,50.52 -16.17,71.53 -10.78,21.07 -26.03,36.99 -45.75,47.77 -19.78,10.84 -41.09,16.23 -63.94,16.23 -24.8,0 -46.91,-6 -66.45,-17.94 -19.47,-11.95 -34.29,-28.24 -44.34,-48.94 -10.04,-20.64 -15.06,-42.5 -15.06,-65.59zm36.01 0.61c0,31.67 8.51,56.59 25.54,74.78 17.02,18.19 38.4,27.32 64.12,27.32 26.21,0 47.71,-9.19 64.67,-27.56 16.91,-18.38 25.36,-44.47 25.36,-78.27 0,-21.38 -3.62,-40.06 -10.84,-55.98 -7.23,-15.92 -17.82,-28.29 -31.73,-37.05 -13.96,-8.76 -29.58,-13.17 -46.91,-13.17 -24.62,0 -45.81,8.45 -63.57,25.36 -17.76,16.9 -26.64,45.07 -26.64,84.57zm373.75 127.45l0 -263.1 189.98 0 0 30.87 -155.07 0 0 80.84 145.14 0 0 30.86 -145.14 0 0 89.66 161.31 0 0 30.87 -196.22 0zm595.91 0l100.93 -263.1 38.27 0 107.12 263.1 -39.62 0 -30.44 -79.74 -110.79 0 -28.54 79.74 -36.93 0zm75.7 -108.03l89.66 0 -27.44 -72.94c-8.27,-22.17 -14.52,-40.49 -18.86,-54.94 -3.62,17.15 -8.46,33.99 -14.52,50.65l-28.84 77.23zm311.53 -155.07l34.91 0 0 115.38c15.86,0 27.07,-3.12 33.5,-9.31 6.49,-6.18 14.7,-21 24.74,-44.52 7.29,-17.33 13.29,-29.52 18.07,-36.63 4.71,-7.16 11.45,-13.16 20.21,-18 8.69,-4.84 18.37,-7.29 28.9,-7.29 13.42,0 20.46,0.12 21.19,0.37l0 30.13c-1.22,0 -3.55,-0.06 -6.98,-0.18 -3.86,-0.13 -6.18,-0.19 -7.04,-0.19 -11.09,0 -19.35,2.7 -24.74,8.09 -5.51,5.39 -11.76,16.9 -18.87,34.48 -8.81,22.29 -16.29,36.38 -22.41,42.19 -6.06,5.76 -13.41,10.42 -21.86,13.91 16.96,4.65 33.74,20.39 50.28,47.09l54.2 87.58 -43.24 0 -44.16 -71.29c-12.06,-19.78 -22.17,-33.37 -30.25,-40.72 -8.15,-7.41 -18.62,-11.09 -31.54,-11.09l0 123.1 -34.91 0 0 -263.1zm326.6 0l34.91 0 0 232.23 136.69 0 0 -232.23 34.91 0 0 232.23 23.89 0 0 103.99 -30.87 0 0 -73.12 -199.53 0 0 -263.1zm384.35 0l31.6 0 0 208.35 140.06 -208.35 34.48 0 0 263.1 -31.6 0 0 -207.8 -139.69 207.8 -34.85 0 0 -263.1zm365.3 135.04c0,-43.61 11.76,-77.78 35.21,-102.46 23.46,-24.68 53.71,-36.99 90.83,-36.99 24.31,0 46.17,5.82 65.71,17.39 19.48,11.58 34.36,27.75 44.59,48.51 10.22,20.7 15.37,44.21 15.37,70.49 0,26.64 -5.39,50.52 -16.17,71.53 -10.78,21.07 -26.03,36.99 -45.75,47.77 -19.78,10.84 -41.09,16.23 -63.94,16.23 -24.8,0 -46.91,-6 -66.45,-17.94 -19.47,-11.95 -34.29,-28.24 -44.34,-48.94 -10.04,-20.64 -15.06,-42.5 -15.06,-65.59zm36.01 0.61c0,31.67 8.51,56.59 25.54,74.78 17.02,18.19 38.4,27.32 64.12,27.32 26.21,0 47.71,-9.19 64.67,-27.56 16.91,-18.38 25.36,-44.47 25.36,-78.27 0,-21.38 -3.62,-40.06 -10.84,-55.98 -7.23,-15.92 -17.82,-28.29 -31.73,-37.05 -13.96,-8.76 -29.58,-13.17 -46.91,-13.17 -24.62,0 -45.81,8.45 -63.57,25.36 -17.76,16.9 -26.64,45.07 -26.64,84.57zm374.48 127.45l0 -263.1 34.91 0 0 108.4 135.96 0 0 -108.4 34.91 0 0 263.1 -34.91 0 0 -123.83 -135.96 0 0 123.83 -34.91 0zm377.19 0l0 -263.1 189.98 0 0 30.87 -155.07 0 0 80.84 145.14 0 0 30.86 -145.14 0 0 89.66 161.31 0 0 30.87 -196.22 0zm356.91 0l0 -263.1 99.34 0c17.46,0 30.81,0.86 40.05,2.51 12.93,2.14 23.77,6.25 32.52,12.25 8.76,6.06 15.81,14.51 21.13,25.35 5.33,10.84 7.97,22.79 7.97,35.83 0,22.29 -7.11,41.22 -21.38,56.65 -14.21,15.5 -39.99,23.21 -77.23,23.21l-67.49 0 0 107.3 -34.91 0zm34.91 -138.16l67.98 0c22.54,0 38.46,-4.17 47.96,-12.56 9.43,-8.39 14.14,-20.15 14.14,-35.4 0,-10.96 -2.75,-20.39 -8.33,-28.23 -5.57,-7.84 -12.92,-13.05 -21.98,-15.56 -5.88,-1.53 -16.72,-2.32 -32.46,-2.32l-67.31 0 0 94.07zm324.21 138.16l0 -263.1 34.91 0 0 108.4 135.96 0 0 -108.4 34.91 0 0 263.1 -34.91 0 0 -123.83 -135.96 0 0 123.83 -34.91 0zm365.8 -128.06c0,-43.61 11.76,-77.78 35.21,-102.46 23.46,-24.68 53.71,-36.99 90.83,-36.99 24.31,0 46.17,5.82 65.71,17.39 19.48,11.58 34.36,27.75 44.59,48.51 10.22,20.7 15.37,44.21 15.37,70.49 0,26.64 -5.39,50.52 -16.17,71.53 -10.78,21.07 -26.03,36.99 -45.75,47.77 -19.78,10.84 -41.09,16.23 -63.94,16.23 -24.8,0 -46.91,-6 -66.45,-17.94 -19.47,-11.95 -34.29,-28.24 -44.34,-48.94 -10.04,-20.64 -15.06,-42.5 -15.06,-65.59zm36.01 0.61c0,31.67 8.51,56.59 25.54,74.78 17.02,18.19 38.4,27.32 64.12,27.32 26.21,0 47.71,-9.19 64.67,-27.56 16.91,-18.38 25.36,-44.47 25.36,-78.27 0,-21.38 -3.62,-40.06 -10.84,-55.98 -7.23,-15.92 -17.82,-28.29 -31.73,-37.05 -13.96,-8.76 -29.58,-13.17 -46.91,-13.17 -24.62,0 -45.81,8.45 -63.57,25.36 -17.76,16.9 -26.64,45.07 -26.64,84.57zm373.75 127.45l0 -263.1 189.98 0 0 30.87 -155.07 0 0 80.84 145.14 0 0 30.86 -145.14 0 0 89.66 161.31 0 0 30.87 -196.22 0zm614.1 -128.06c0,-43.61 11.76,-77.78 35.21,-102.46 23.46,-24.68 53.71,-36.99 90.83,-36.99 24.31,0 46.17,5.82 65.71,17.39 19.48,11.58 34.36,27.75 44.59,48.51 10.22,20.7 15.37,44.21 15.37,70.49 0,26.64 -5.39,50.52 -16.17,71.53 -10.78,21.07 -26.03,36.99 -45.75,47.77 -19.78,10.84 -41.09,16.23 -63.94,16.23 -24.8,0 -46.91,-6 -66.45,-17.94 -19.47,-11.95 -34.29,-28.24 -44.34,-48.94 -10.04,-20.64 -15.06,-42.5 -15.06,-65.59zm36.01 0.61c0,31.67 8.51,56.59 25.54,74.78 17.02,18.19 38.4,27.32 64.12,27.32 26.21,0 47.71,-9.19 64.67,-27.56 16.91,-18.38 25.36,-44.47 25.36,-78.27 0,-21.38 -3.62,-40.06 -10.84,-55.98 -7.23,-15.92 -17.82,-28.29 -31.73,-37.05 -13.96,-8.76 -29.58,-13.17 -46.91,-13.17 -24.62,0 -45.81,8.45 -63.57,25.36 -17.76,16.9 -26.64,45.07 -26.64,84.57zm374.48 -135.65l170.87 0 0 30.87 -135.96 0 0 81.2 62.84 0c23.21,0 41.64,2.21 55.36,6.68 13.72,4.41 24.68,12.74 32.95,25.05 8.27,12.25 12.37,26.52 12.37,42.81 0,13.29 -2.94,25.72 -8.88,37.23 -5.94,11.58 -14.76,21.01 -26.52,28.3 -11.69,7.29 -31.72,10.96 -59.95,10.96l-103.08 0 0 -263.1zm34.91 233.34l69.64 0c18.8,0 32.88,-3.8 42.32,-11.46 9.37,-7.65 14.08,-19.1 14.08,-34.35 0,-10.91 -2.69,-19.97 -8.08,-27.26 -5.39,-7.29 -12.86,-12.12 -22.42,-14.51 -9.61,-2.39 -25.96,-3.55 -49.05,-3.55l-46.49 0 0 91.13zm318.09 -233.34l34.91 0 0 232.23 87.09 0 0 -232.23 34.9 0 0 232.23 87.09 0 0 -232.23 34.91 0 0 232.23 23.52 0 0 103.99 -30.87 0 0 -73.12 -271.55 0 0 -263.1zm457.04 263.1l0 -263.1 189.98 0 0 30.87 -155.07 0 0 80.84 145.14 0 0 30.86 -145.14 0 0 89.66 161.31 0 0 30.87 -196.22 0zm544.32 -92.29l34.91 8.82c-7.29,28.6 -20.4,50.34 -39.32,65.34 -18.92,15.01 -42.07,22.54 -69.45,22.54 -28.29,0 -51.32,-5.76 -69.08,-17.33 -17.76,-11.52 -31.24,-28.24 -40.48,-50.1 -9.25,-21.92 -13.91,-45.38 -13.91,-70.49 0,-27.38 5.21,-51.26 15.68,-71.66 10.47,-20.39 25.36,-35.88 44.65,-46.48 19.29,-10.59 40.54,-15.86 63.69,-15.86 26.34,0 48.44,6.67 66.33,20.09 17.94,13.41 30.44,32.21 37.48,56.46l-34.18 8.09c-6.06,-19.11 -14.94,-33.07 -26.51,-41.77 -11.58,-8.76 -26.15,-13.11 -43.73,-13.11 -20.15,0 -37.05,4.84 -50.59,14.52 -13.53,9.67 -23.09,22.72 -28.54,39.01 -5.51,16.35 -8.27,33.19 -8.27,50.53 0,22.35 3.25,41.89 9.74,58.54 6.49,16.72 16.6,29.16 30.32,37.42 13.72,8.27 28.54,12.38 44.52,12.38 19.48,0 35.89,-5.64 49.36,-16.85 13.48,-11.27 22.6,-27.92 27.38,-50.09zm245.2 92.29l0 -232.23 -86.72 0 0 -30.87 208.35 0 0 30.87 -86.72 0 0 232.23 -34.91 0zm268.66 0l0 -263.1 98.73 0c20.09,0 36.19,2.63 48.38,7.96 12.13,5.33 21.62,13.54 28.48,24.62 6.92,11.02 10.35,22.6 10.35,34.73 0,11.2 -3.06,21.8 -9.13,31.72 -6.06,9.92 -15.25,17.94 -27.56,24.07 15.93,4.65 28.18,12.61 36.69,23.88 8.57,11.21 12.86,24.5 12.86,39.81 0,12.37 -2.63,23.82 -7.84,34.42 -5.2,10.59 -11.63,18.74 -19.29,24.5 -7.66,5.69 -17.27,10.04 -28.78,12.98 -11.58,2.94 -25.73,4.41 -42.51,4.41l-100.38 0zm34.91 -152.5l56.9 0c15.43,0 26.52,-1.04 33.19,-3.06 8.88,-2.63 15.56,-7.04 20.03,-13.17 4.47,-6.12 6.74,-13.78 6.74,-23.02 0,-8.76 -2.09,-16.48 -6.31,-23.09 -4.17,-6.68 -10.17,-11.27 -17.95,-13.72 -7.77,-2.45 -21.13,-3.67 -39.99,-3.67l-52.61 0 0 79.73zm0 121.63l65.53 0c11.27,0 19.17,-0.43 23.77,-1.28 7.96,-1.41 14.69,-3.8 20.08,-7.17 5.39,-3.37 9.8,-8.27 13.29,-14.7 3.49,-6.43 5.21,-13.84 5.21,-22.23 0,-9.86 -2.51,-18.37 -7.59,-25.66 -5.03,-7.29 -12.01,-12.37 -20.95,-15.31 -8.88,-2.94 -21.74,-4.41 -38.46,-4.41l-60.88 0 0 90.76zm301.37 -97.19c0,-43.61 11.76,-77.78 35.21,-102.46 23.46,-24.68 53.71,-36.99 90.83,-36.99 24.31,0 46.17,5.82 65.71,17.39 19.48,11.58 34.36,27.75 44.59,48.51 10.22,20.7 15.37,44.21 15.37,70.49 0,26.64 -5.39,50.52 -16.17,71.53 -10.78,21.07 -26.03,36.99 -45.75,47.77 -19.78,10.84 -41.09,16.23 -63.94,16.23 -24.8,0 -46.91,-6 -66.45,-17.94 -19.47,-11.95 -34.29,-28.24 -44.34,-48.94 -10.04,-20.64 -15.06,-42.5 -15.06,-65.59zm36.01 0.61c0,31.67 8.51,56.59 25.54,74.78 17.02,18.19 38.4,27.32 64.12,27.32 26.21,0 47.71,-9.19 64.67,-27.56 16.91,-18.38 25.36,-44.47 25.36,-78.27 0,-21.38 -3.62,-40.06 -10.84,-55.98 -7.23,-15.92 -17.82,-28.29 -31.73,-37.05 -13.96,-8.76 -29.58,-13.17 -46.91,-13.17 -24.62,0 -45.81,8.45 -63.57,25.36 -17.76,16.9 -26.64,45.07 -26.64,84.57z"/>
  </g>
 </g>
</svg>
